<svg width="45" height="45" viewBox="0 0 45 45" fill="none" xmlns="http://www.w3.org/2000/svg">
<path d="M7.5 13.125C7.5 12.6277 7.69754 12.1508 8.04918 11.7992C8.40081 11.4475 8.87772 11.25 9.375 11.25H35.625C36.1223 11.25 36.5992 11.4475 36.9508 11.7992C37.3025 12.1508 37.5 12.6277 37.5 13.125C37.5 13.6223 37.3025 14.0992 36.9508 14.4508C36.5992 14.8025 36.1223 15 35.625 15H9.375C8.87772 15 8.40081 14.8025 8.04918 14.4508C7.69754 14.0992 7.5 13.6223 7.5 13.125ZM7.5 22.5C7.5 22.0027 7.69754 21.5258 8.04918 21.1742C8.40081 20.8225 8.87772 20.625 9.375 20.625H35.625C36.1223 20.625 36.5992 20.8225 36.9508 21.1742C37.3025 21.5258 37.5 22.0027 37.5 22.5C37.5 22.9973 37.3025 23.4742 36.9508 23.8258C36.5992 24.1775 36.1223 24.375 35.625 24.375H9.375C8.87772 24.375 8.40081 24.1775 8.04918 23.8258C7.69754 23.4742 7.5 22.9973 7.5 22.5ZM7.5 31.875C7.5 31.3777 7.69754 30.9008 8.04918 30.5492C8.40081 30.1975 8.87772 30 9.375 30H35.625C36.1223 30 36.5992 30.1975 36.9508 30.5492C37.3025 30.9008 37.5 31.3777 37.5 31.875C37.5 32.3723 37.3025 32.8492 36.9508 33.2008C36.5992 33.5525 36.1223 33.75 35.625 33.75H9.375C8.87772 33.75 8.40081 33.5525 8.04918 33.2008C7.69754 32.8492 7.5 32.3723 7.5 31.875Z" fill="#D48166"/>
</svg>
