<svg width="30" height="24" viewBox="0 0 30 24" fill="none" xmlns="http://www.w3.org/2000/svg">
<path d="M27.5 0H2.5C1.11979 0 0 1.11979 0 2.5V20.8333C0 22.2135 1.11979 23.3333 2.5 23.3333H27.5C28.8802 23.3333 30 22.2135 30 20.8333V2.5C30 1.11979 28.8802 0 27.5 0ZM9.16667 5C11.0052 5 12.5 6.49479 12.5 8.33333C12.5 10.1719 11.0052 11.6667 9.16667 11.6667C7.32812 11.6667 5.83333 10.1719 5.83333 8.33333C5.83333 6.49479 7.32812 5 9.16667 5ZM15 17.3333C15 17.8854 14.4792 18.3333 13.8333 18.3333H4.5C3.85417 18.3333 3.33333 17.8854 3.33333 17.3333V16.3333C3.33333 14.6771 4.90104 13.3333 6.83333 13.3333C7.00526 13.3333 7.17483 13.3691 7.33653 13.4275C7.90936 13.6343 8.52405 13.75 9.16667 13.75C9.80879 13.75 10.427 13.6345 10.997 13.4279C11.1586 13.3694 11.3281 13.3333 11.5 13.3333C13.4323 13.3333 15 14.6771 15 16.3333V17.3333ZM26.6667 14.5833C26.6667 14.8125 26.4792 15 26.25 15H18.75C18.5208 15 18.3333 14.8125 18.3333 14.5833V13.75C18.3333 13.5208 18.5208 13.3333 18.75 13.3333H26.25C26.4792 13.3333 26.6667 13.5208 26.6667 13.75V14.5833ZM26.6667 11.25C26.6667 11.4792 26.4792 11.6667 26.25 11.6667H18.75C18.5208 11.6667 18.3333 11.4792 18.3333 11.25V10.4167C18.3333 10.1875 18.5208 10 18.75 10H26.25C26.4792 10 26.6667 10.1875 26.6667 10.4167V11.25ZM26.6667 7.91667C26.6667 8.14583 26.4792 8.33333 26.25 8.33333H18.75C18.5208 8.33333 18.3333 8.14583 18.3333 7.91667V7.08333C18.3333 6.85417 18.5208 6.66667 18.75 6.66667H26.25C26.4792 6.66667 26.6667 6.85417 26.6667 7.08333V7.91667Z" fill="black"/>
</svg>
