<svg width="22" height="22" viewBox="0 0 22 22" fill="none" xmlns="http://www.w3.org/2000/svg">
<path d="M6 17V16C6 13.2386 8.23858 11 11 11C13.7614 11 16 13.2386 16 16V17" stroke="black" stroke-linecap="round"/>
<path d="M11 11C12.6569 11 14 9.6569 14 8C14 6.34315 12.6569 5 11 5C9.3431 5 8 6.34315 8 8C8 9.6569 9.3431 11 11 11Z" stroke="black" stroke-linecap="round" stroke-linejoin="round"/>
<path d="M11 21C16.5228 21 21 16.5228 21 11C21 5.47715 16.5228 1 11 1C5.47715 1 1 5.47715 1 11C1 16.5228 5.47715 21 11 21Z" stroke="black"/>
</svg>
