<svg width="30" height="30" viewBox="0 0 30 30" fill="none" xmlns="http://www.w3.org/2000/svg">
<path d="M29.5604 27.4381C29.6998 27.5774 29.8103 27.7429 29.8858 27.9249C29.9612 28.107 30 28.3022 30 28.4992C30 28.6963 29.9612 28.8915 29.8858 29.0736C29.8103 29.2556 29.6998 29.4211 29.5604 29.5604C29.4211 29.6998 29.2556 29.8103 29.0736 29.8858C28.8915 29.9612 28.6963 30 28.4992 30C28.3022 30 28.107 29.9612 27.9249 29.8858C27.7429 29.8103 27.5774 29.6998 27.4381 29.5604L15 17.1205L2.56194 29.5604C2.2805 29.8419 1.89877 30 1.50075 30C1.10273 30 0.721005 29.8419 0.43956 29.5604C0.158114 29.279 7.846e-09 28.8973 0 28.4992C-7.846e-09 28.1012 0.158114 27.7195 0.43956 27.4381L12.8795 15L0.43956 2.56194C0.158114 2.2805 -2.96551e-09 1.89877 0 1.50075C2.96551e-09 1.10273 0.158114 0.721005 0.43956 0.43956C0.721005 0.158114 1.10273 2.96551e-09 1.50075 0C1.89877 -2.96551e-09 2.2805 0.158114 2.56194 0.43956L15 12.8795L27.4381 0.43956C27.7195 0.158114 28.1012 -7.846e-09 28.4992 0C28.8973 7.846e-09 29.279 0.158114 29.5604 0.43956C29.8419 0.721005 30 1.10273 30 1.50075C30 1.89877 29.8419 2.2805 29.5604 2.56194L17.1205 15L29.5604 27.4381Z" fill="#D48166"/>
</svg>
